{
  "accessors": [
    {
      "bufferView": 2,
      "componentType": 5126,
      "count": 21807,
      "max": [
        0.25557300448417664,
        0.1825850009918213,
        0.12734200060367584
      ],
      "min": [
        -0.2544029951095581,
        -0.18580999970436096,
        -0.2414499968290329
      ],
      "type": "VEC3"
    },
    {
      "bufferView": 2,
      "byteOffset": 261684,
      "componentType": 5126,
      "count": 21807,
      "max": [
        0.9998869895935059,
        0.9999889731407166,
        0.9998507499694824
      ],
      "min": [
        -0.9998044967651367,
        -0.9999598860740662,
        -0.9999695420265198
      ],
      "type": "VEC3"
    },
    {
      "bufferView": 1,
      "componentType": 5126,
      "count": 21807,
      "max": [
        0.9999480247497559,
        0.9973539710044861
      ],
      "min": [
        2.7691999093804043e-07,
        5.686279837391339e-05
      ],
      "type": "VEC2"
    },
    {
      "bufferView": 0,
      "componentType": 5125,
      "count": 115974,
      "type": "SCALAR"
    }
  ],
  "asset": {
    "extras": {
      "author": "aaa888 (https://sketchfab.com/aaa888)",
      "license": "CC-BY-4.0 (http://creativecommons.org/licenses/by/4.0/)",
      "source": "https://sketchfab.com/3d-models/single-strawberry-8762d4cd820745afba7eb22b0acb2cfd",
      "title": "Single Strawberry"
    },
    "generator": "Sketchfab-14.64.0",
    "version": "2.0"
  },
  "bufferViews": [
    {
      "buffer": 0,
      "byteLength": 463896,
      "name": "floatBufferViews",
      "target": 34963
    },
    {
      "buffer": 0,
      "byteLength": 174456,
      "byteOffset": 463896,
      "byteStride": 8,
      "name": "floatBufferViews",
      "target": 34962
    },
    {
      "buffer": 0,
      "byteLength": 523368,
      "byteOffset": 638352,
      "byteStride": 12,
      "name": "floatBufferViews",
      "target": 34962
    }
  ],
  "buffers": [
    {
      "byteLength": 1161720,
      "uri": "scene.bin"
    }
  ],
  "images": [
    {
      "uri": "textures/material_1_baseColor.png"
    }
  ],
  "materials": [
    {
      "doubleSided": true,
      "name": "material_1",
      "pbrMetallicRoughness": {
        "baseColorTexture": {
          "index": 0
        },
        "metallicFactor": 0.0
      }
    }
  ],
  "meshes": [
    {
      "name": "Object_0",
      "primitives": [
        {
          "attributes": {
            "NORMAL": 1,
            "POSITION": 0,
            "TEXCOORD_0": 2
          },
          "indices": 3,
          "material": 0,
          "mode": 4
        }
      ]
    }
  ],
  "nodes": [
    {
      "children": [
        1
      ],
      "matrix": [
        1.0,
        0.0,
        0.0,
        0.0,
        0.0,
        2.220446049250313e-16,
        -1.0,
        0.0,
        0.0,
        1.0,
        2.220446049250313e-16,
        0.0,
        0.0,
        0.0,
        0.0,
        1.0
      ],
      "name": "Sketchfab_model"
    },
    {
      "children": [
        2
      ],
      "name": "model.obj.cleaner.materialmerger.gles"
    },
    {
      "mesh": 0,
      "name": "Object_2"
    }
  ],
  "samplers": [
    {
      "magFilter": 9729,
      "minFilter": 9987,
      "wrapS": 10497,
      "wrapT": 10497
    }
  ],
  "scene": 0,
  "scenes": [
    {
      "name": "Sketchfab_Scene",
      "nodes": [
        0
      ]
    }
  ],
  "textures": [
    {
      "sampler": 0,
      "source": 0
    }
  ]
}
